<svg xmlns="http://www.w3.org/2000/svg" viewBox="0 0 512 512" role="img" aria-label="7flip app icon">
  <defs>
    <linearGradient id="bg" x1="70" y1="36" x2="442" y2="476" gradientUnits="userSpaceOnUse">
      <stop offset="0" stop-color="#2563eb"/>
      <stop offset="0.5" stop-color="#4f46e5"/>
      <stop offset="1" stop-color="#0f172a"/>
    </linearGradient>
    <linearGradient id="card" x1="190" y1="92" x2="340" y2="392" gradientUnits="userSpaceOnUse">
      <stop offset="0" stop-color="#ffffff"/>
      <stop offset="1" stop-color="#e0f2fe"/>
    </linearGradient>
    <linearGradient id="edge" x1="140" y1="126" x2="380" y2="408" gradientUnits="userSpaceOnUse">
      <stop offset="0" stop-color="#67e8f9"/>
      <stop offset="1" stop-color="#22c55e"/>
    </linearGradient>
    <filter id="shadow" x="-20%" y="-20%" width="140%" height="140%">
      <feDropShadow dx="0" dy="18" stdDeviation="18" flood-color="#020617" flood-opacity="0.32"/>
    </filter>
  </defs>

  <rect width="512" height="512" rx="112" fill="url(#bg)"/>
  <circle cx="96" cy="96" r="82" fill="#ffffff" opacity="0.07"/>
  <circle cx="438" cy="430" r="112" fill="#22c55e" opacity="0.13"/>

  <g filter="url(#shadow)">
    <rect x="154" y="96" width="224" height="314" rx="34" fill="#0f172a" opacity="0.28" transform="rotate(-9 266 253)"/>
    <rect x="146" y="88" width="224" height="314" rx="34" fill="url(#card)" transform="rotate(-9 258 245)"/>
    <rect x="166" y="108" width="184" height="274" rx="24" fill="none" stroke="url(#edge)" stroke-width="10" transform="rotate(-9 258 245)"/>
  </g>

  <path d="M163 174c54-35 129-42 189-16" fill="none" stroke="#22c55e" stroke-width="18" stroke-linecap="round"/>
  <path d="M337 130l33 34-46 11" fill="none" stroke="#22c55e" stroke-width="18" stroke-linecap="round" stroke-linejoin="round"/>

  <text x="258" y="338" fill="#1e1b4b" font-family="Arial Black, Arial, sans-serif" font-size="216" font-weight="900" text-anchor="middle">7</text>
  <text x="316" y="368" fill="#0f172a" font-family="Arial Black, Arial, sans-serif" font-size="58" font-weight="900" text-anchor="middle">flip</text>
</svg>
